# xmcd CD database file
#
# Track frame offsets:
#	150
#	25340
#	42922
#	58513
#	81685
#	105156
#	123588
#	148679
#	168455
#	182716
#	209018
#	231213
#	251113
#	283203
#
# Disc length: 4126 seconds
#
# Revision: 1
# Processed by: cddbd v1.5.2PL0 Copyright (c) Steve Scherf et al.
# Submitted via: CDex 1.70beta3
#
DISCID=d5101c0e
DTITLE=LUNA SEA - COMPLETE BEST [Disc 2]
DYEAR=1900
DGENRE=ロック
TTITLE0=LOVELESS
TTITLE1=Dejavu
TTITLE2=SLAVE
TTITLE3=Sweetest Coma Again
TTITLE4=WITH LOVE
TTITLE5=Be Awake
TTITLE6=Crazy About You
TTITLE7=JESUS
TTITLE8=Providence
TTITLE9=BREATHE
TTITLE10=UP TO YOU
TTITLE11=PRECIOUS...
TTITLE12=MOON
TTITLE13=WISH
EXTD=
EXTT0=
EXTT1=
EXTT2=
EXTT3=
EXTT4=
EXTT5=
EXTT6=
EXTT7=
EXTT8=
EXTT9=
EXTT10=
EXTT11=
EXTT12=
EXTT13=
PLAYORDER=
